<?xml version="1.0" encoding="utf-8"?>
<!-- Generator: Adobe Illustrator 27.6.1, SVG Export Plug-In . SVG Version: 6.00 Build 0)  -->
<svg version="1.1" xmlns="http://www.w3.org/2000/svg" xmlns:xlink="http://www.w3.org/1999/xlink" x="0px" y="0px"
	 viewBox="0 0 1000 1000" style="enable-background:new 0 0 1000 1000;" xml:space="preserve">
<style type="text/css">
	.st0{display:none;}
	.st1{display:inline;fill:url(#SVGID_1_);stroke:#000000;stroke-miterlimit:10;}
	.st2{display:inline;}
	.st3{fill:#111133;}
	.st4{fill:none;stroke:#2C4276;stroke-width:6;stroke-linecap:round;stroke-linejoin:round;}
	.st5{display:inline;fill:#FCF9E5;}
	.st6{font-family:'MyriadPro-Bold';}
	.st7{font-size:20px;}
	.st8{fill:none;stroke:#FCF9E5;stroke-width:4;stroke-linejoin:round;}
	.st9{fill:#FCF9E5;}
	.st10{font-size:11.6px;}
	.st11{fill:none;stroke:#FCF9E5;stroke-width:4;stroke-miterlimit:10;}
	.st12{display:inline;fill:none;stroke:#FCF9E5;stroke-width:4;stroke-linejoin:round;}
	.st13{fill:none;stroke:#2C4276;stroke-width:6.4143;stroke-linecap:round;stroke-linejoin:round;}
	.st14{fill:#EE2958;stroke:#FCF9E5;stroke-width:2.4;stroke-linecap:round;stroke-linejoin:round;stroke-miterlimit:10;}
	.st15{fill:#2C4276;stroke:#FCF9E5;stroke-width:2.4;stroke-linecap:round;stroke-linejoin:round;stroke-miterlimit:10;}
	.st16{fill:#2C4276;stroke:#111133;stroke-width:4;stroke-miterlimit:10;}
	.st17{fill:none;stroke:#111133;stroke-width:4;stroke-linecap:round;stroke-linejoin:round;stroke-miterlimit:10;}
	.st18{fill:#2C4276;stroke:#FCF9E5;stroke-width:4;stroke-miterlimit:10;}
	.st19{fill:none;stroke:#FCF9E5;stroke-width:4;stroke-linecap:round;stroke-linejoin:round;stroke-miterlimit:10;}
	.st20{fill:#2C4276;stroke:#111133;stroke-width:4;stroke-linecap:round;stroke-linejoin:round;stroke-miterlimit:10;}
	.st21{fill:#2C4276;stroke:#FCF9E5;stroke-width:4;stroke-linecap:round;stroke-linejoin:round;stroke-miterlimit:10;}
	
		.st22{display:inline;fill:#EE2958;stroke:#111133;stroke-width:4;stroke-linecap:round;stroke-linejoin:round;stroke-miterlimit:10;}
	
		.st23{display:inline;fill:#EE2958;stroke:#FCF9E5;stroke-width:4;stroke-linecap:round;stroke-linejoin:round;stroke-miterlimit:10;}
	.st24{fill:#EE2958;stroke:#111133;stroke-width:4;stroke-linecap:round;stroke-linejoin:round;stroke-miterlimit:10;}
	.st25{fill:#2D4377;}
	.st26{fill:#ED2D5A;}
	.st27{fill:#231F20;}
	.st28{font-family:'ArialMT';}
	.st29{font-size:27px;}
	.st30{display:inline;fill:none;stroke:#FCF9E5;stroke-width:4;stroke-linejoin:round;stroke-miterlimit:10;}
	.st31{fill:#2C4276;stroke:#FCF8E5;stroke-width:4;stroke-linecap:round;stroke-linejoin:round;stroke-miterlimit:10;}
	
		.st32{display:inline;fill:#FCF9E5;stroke:#FCF9E5;stroke-width:4;stroke-linecap:round;stroke-linejoin:round;stroke-miterlimit:10;}
	
		.st33{display:inline;fill:#FCF9E5;stroke:#111133;stroke-width:4;stroke-linecap:round;stroke-linejoin:round;stroke-miterlimit:10;}
	
		.st34{display:inline;fill:#2C4276;stroke:#111133;stroke-width:4;stroke-linecap:round;stroke-linejoin:round;stroke-miterlimit:10;}
	.st35{fill:#2C4276;stroke:#FCF9E5;stroke-width:4;stroke-linejoin:round;stroke-miterlimit:10;}
	.st36{display:inline;fill:#2C4276;stroke:#FCF9E5;stroke-width:4;stroke-linejoin:round;stroke-miterlimit:10;}
	.st37{fill:#EE2958;stroke:#111133;stroke-width:2.4;stroke-linecap:round;stroke-linejoin:round;stroke-miterlimit:10;}
	.st38{fill:#2C4276;stroke:#FCF8E5;stroke-width:2.4;stroke-linecap:round;stroke-linejoin:round;stroke-miterlimit:10;}
	
		.st39{display:inline;fill:#FCF9E5;stroke:#FCF9E5;stroke-width:2.4;stroke-linecap:round;stroke-linejoin:round;stroke-miterlimit:10;}
	
		.st40{display:inline;fill:#FCF9E5;stroke:#111133;stroke-width:2.4;stroke-linecap:round;stroke-linejoin:round;stroke-miterlimit:10;}
	
		.st41{display:inline;fill:#2C4276;stroke:#111133;stroke-width:2.4;stroke-linecap:round;stroke-linejoin:round;stroke-miterlimit:10;}
	.st42{display:inline;fill:#2C4276;stroke:#FCF9E5;stroke-width:2;stroke-linejoin:round;stroke-miterlimit:10;}
	.st43{fill:none;stroke:#FCF9E5;stroke-width:2.4;stroke-linecap:round;stroke-linejoin:round;stroke-miterlimit:10;}
	.st44{fill:none;stroke:#EE2958;stroke-width:2;stroke-linecap:round;stroke-linejoin:round;stroke-miterlimit:10;}
	.st45{display:inline;fill:none;stroke:#FCF9E5;stroke-width:6.168;stroke-linejoin:round;stroke-miterlimit:10;}
	
		.st46{display:inline;fill:none;stroke:#EE2958;stroke-width:9.6534;stroke-linecap:round;stroke-linejoin:round;stroke-miterlimit:10;}
	
		.st47{display:inline;fill:#2C4276;stroke:#FCF9E5;stroke-width:2.8284;stroke-linecap:round;stroke-linejoin:round;stroke-miterlimit:10;}
	.st48{fill:none;stroke:#111133;stroke-width:2.4;stroke-linecap:round;stroke-linejoin:round;stroke-miterlimit:10;}
	.st49{fill:#2C4276;stroke:#111133;stroke-width:2.4;stroke-linecap:round;stroke-linejoin:round;stroke-miterlimit:10;}
	.st50{fill:none;stroke:#FCF9E5;stroke-width:4;stroke-linejoin:round;stroke-miterlimit:10;}
	.st51{fill:#2C4276;stroke:#FCF9E5;stroke-width:2;stroke-linejoin:round;stroke-miterlimit:10;}
	.st52{fill:#2C4276;stroke:#FCF9E5;stroke-width:3.998;stroke-linejoin:round;stroke-miterlimit:10;}
</style>
<g id="background" class="st0">
	<radialGradient id="SVGID_1_" cx="500" cy="500" r="500" gradientUnits="userSpaceOnUse">
		<stop  offset="2.603168e-03" style="stop-color:#1A2D57"/>
		<stop  offset="1" style="stop-color:#111133"/>
	</radialGradient>
	<rect x="0" class="st1" width="1000" height="1000"/>
</g>
<g id="Layer_2_00000168819544221241386970000008280097171989003711_" class="st0">
	<g class="st2">
		<path class="st3" d="M318,230h364c9.9,0,18,8.1,18,18v364c0,9.9-8.1,18-18,18H318c-9.9,0-18-8.1-18-18V248
			C300,238.1,308.1,230,318,230z"/>
		<path class="st4" d="M318,230h364c9.9,0,18,8.1,18,18v364c0,9.9-8.1,18-18,18H318c-9.9,0-18-8.1-18-18V248
			C300,238.1,308.1,230,318,230z"/>
	</g>
	<text transform="matrix(1 0 0 1 168.17 181.67)" class="st5 st6 st7">A</text>
	<text transform="matrix(1 0 0 1 180.17 181.67)" class="st5 st6 st7">ux</text>
	<text transform="matrix(1 0 0 1 162.29 130.92)" class="st5 st6 st7">V</text>
	<text transform="matrix(1 0 0 1 172.79 130.92)" class="st5 st6 st7">e</text>
	<text transform="matrix(1 0 0 1 182.81 130.92)" class="st5 st6 st7">n</text>
	<text transform="matrix(1 0 0 1 193.83 130.92)" class="st5 st6 st7">t</text>
	<g class="st2">
		<line class="st8" x1="435" y1="898" x2="435" y2="723"/>
		<line class="st8" x1="565" y1="763" x2="565" y2="723"/>
		<line class="st8" x1="435" y1="878" x2="475" y2="878"/>
		<polyline class="st8" points="525,878 565,878 565,878 565,838 		"/>
		<line class="st8" x1="565" y1="878" x2="605" y2="878"/>
		<line class="st8" x1="395" y1="800.5" x2="435" y2="800.5"/>
		<polyline class="st8" points="565,878 565,935.5 605,935.5 		"/>
		<text transform="matrix(1 0 0 1 704.95 941.76)" class="st9 st6 st7">N</text>
		<text transform="matrix(1 0 0 1 718.1104 948.4199)" class="st9 st6 st10">2</text>
		<text transform="matrix(1 0 0 1 279.61 883.63)" class="st9 st6 st7">N</text>
		<text transform="matrix(1 0 0 1 292.77 890.29)" class="st9 st6 st10">2</text>
		<line class="st8" x1="395" y1="878" x2="435" y2="878"/>
		<line class="st8" x1="435" y1="673" x2="435" y2="633"/>
		<line class="st8" x1="565" y1="673" x2="565" y2="633"/>
		<line class="st11" x1="655" y1="935.5" x2="695" y2="935.5"/>
		<line class="st11" x1="345" y1="877.6" x2="305" y2="877.6"/>
	</g>
	<g class="st2">
		<line class="st8" x1="743" y1="600" x2="703" y2="600"/>
		<line class="st8" x1="743" y1="525" x2="703" y2="525"/>
	</g>
	<line class="st12" x1="257" y1="600" x2="297" y2="600"/>
	<line class="st12" x1="257" y1="525" x2="297" y2="525"/>
	<polyline class="st12" points="340,227 340,175 300,175 	"/>
	<line class="st12" x1="250" y1="175" x2="210" y2="175"/>
	<line class="st12" x1="850" y1="175" x2="1000" y2="175"/>
	<line class="st12" x1="250" y1="125" x2="210" y2="125"/>
	<polyline class="st12" points="300,125 400,125 400,227 	"/>
	<polyline class="st12" points="660,227 660,175 700,175 	"/>
	<line class="st12" x1="750" y1="175" x2="790" y2="175"/>
	<line class="st12" x1="750" y1="125" x2="790" y2="125"/>
	<polyline class="st12" points="700,125 600,125 600,227 	"/>
	<line class="st12" x1="850" y1="125" x2="1000" y2="125"/>
</g>
<g id="devices" class="st0">
	<g class="st2">
		<path class="st3" d="M318,275h364c9.9,0,18,8.1,18,18v364c0,9.9-8.1,18-18,18H318c-9.9,0-18-8.1-18-18V293
			C300,283.1,308.1,275,318,275z"/>
		<path class="st13" d="M318,275h364c9.9,0,18,8.1,18,18v364c0,9.9-8.1,18-18,18H318c-9.9,0-18-8.1-18-18V293
			C300,283.1,308.1,275,318,275z"/>
	</g>
	<g class="st2">
		<g id="off">
			<circle class="st14" cx="338.3" cy="721.1" r="15"/>
			<path class="st9" d="M337.1,721c0,0,0-0.2,0.1-0.6c0-0.1,0-0.2,0-0.3c0-0.1,0.1-0.3,0.1-0.4c0.1-0.3,0.1-0.6,0.3-0.9
				c0.1-0.2,0.1-0.3,0.2-0.5c0.1-0.2,0.2-0.3,0.2-0.5c0.1-0.4,0.4-0.7,0.6-1.1c0.3-0.3,0.5-0.7,0.8-1c0.3-0.3,0.6-0.6,0.9-0.9
				c0.4-0.3,0.7-0.5,1.1-0.8c0.4-0.2,0.7-0.4,1.1-0.6c0.4-0.1,0.7-0.3,1.1-0.4c0.2,0,0.3-0.1,0.5-0.1c0.2,0,0.3-0.1,0.5-0.1
				c0.3-0.1,0.6-0.1,0.9-0.1c0.3,0,0.5,0,0.7,0c0.4,0,0.6,0,0.6,0s-0.2,0-0.6,0.1c-0.2,0-0.4,0.1-0.6,0.1c-0.2,0.1-0.5,0.1-0.8,0.2
				c-0.1,0.1-0.3,0.1-0.4,0.2c-0.1,0.1-0.3,0.1-0.5,0.2c-0.3,0.1-0.6,0.3-0.9,0.5c-0.3,0.2-0.6,0.4-0.9,0.7
				c-0.3,0.2-0.5,0.5-0.8,0.8c-0.2,0.3-0.5,0.6-0.6,0.9c-0.2,0.3-0.3,0.7-0.5,1c-0.1,0.3-0.3,0.6-0.3,1c0,0.2-0.1,0.3-0.1,0.4
				c0,0.1,0,0.3-0.1,0.4c-0.1,0.3-0.1,0.5-0.1,0.7c0,0.1,0,0.2,0,0.3c0,0.1,0,0.2,0,0.3c0,0.4,0,0.6,0,0.6c0,0.7-0.5,1.2-1.2,1.3
				c-0.7,0-1.2-0.5-1.3-1.2C337.1,721.2,337.1,721.1,337.1,721z"/>
			<path class="st9" d="M339,720.1c0,0,0.2,0.1,0.4,0.4c0.1,0.1,0.2,0.1,0.2,0.2c0.1,0.1,0.2,0.2,0.3,0.3c0.2,0.2,0.5,0.4,0.7,0.7
				c0.1,0.1,0.2,0.3,0.4,0.4c0.1,0.2,0.2,0.3,0.3,0.5c0.2,0.3,0.4,0.7,0.6,1.1c0.2,0.4,0.4,0.8,0.5,1.2c0.2,0.4,0.2,0.9,0.3,1.3
				c0.1,0.4,0.1,0.9,0.1,1.3c0,0.4,0,0.9,0,1.3c-0.1,0.4-0.1,0.8-0.2,1.1c0,0.2-0.1,0.3-0.1,0.5c-0.1,0.2-0.1,0.3-0.2,0.5
				c-0.1,0.3-0.2,0.6-0.4,0.8c-0.1,0.2-0.2,0.4-0.3,0.6c-0.2,0.3-0.3,0.5-0.3,0.5s0.1-0.2,0.2-0.5c0.1-0.2,0.1-0.4,0.2-0.6
				c0.1-0.2,0.2-0.5,0.2-0.8c0-0.1,0.1-0.3,0.1-0.5c0-0.2,0-0.3,0-0.5c0-0.3,0-0.7,0-1.1c-0.1-0.4-0.1-0.7-0.2-1.1
				c-0.1-0.4-0.2-0.7-0.3-1.1c-0.2-0.4-0.3-0.7-0.5-1c-0.2-0.3-0.4-0.6-0.6-0.9c-0.2-0.3-0.4-0.5-0.7-0.8c-0.1-0.1-0.2-0.2-0.3-0.3
				c-0.1-0.1-0.2-0.2-0.3-0.3c-0.2-0.2-0.4-0.3-0.6-0.4c-0.1-0.1-0.2-0.1-0.2-0.2c-0.1-0.1-0.2-0.1-0.3-0.1
				c-0.3-0.2-0.5-0.3-0.5-0.3c-0.6-0.3-0.8-1-0.5-1.6c0.3-0.6,1-0.8,1.6-0.5C338.9,720,338.9,720,339,720.1z"/>
			<path class="st9" d="M337.7,722.1c0,0-0.2-0.1-0.4-0.4c-0.1-0.1-0.2-0.1-0.2-0.2c-0.1-0.1-0.2-0.2-0.3-0.3
				c-0.2-0.2-0.5-0.4-0.7-0.7c-0.1-0.1-0.2-0.3-0.4-0.4c-0.1-0.2-0.2-0.3-0.3-0.5c-0.2-0.3-0.4-0.7-0.6-1.1
				c-0.2-0.4-0.4-0.8-0.5-1.2c-0.2-0.4-0.2-0.9-0.3-1.3c-0.1-0.4-0.1-0.9-0.1-1.3c0-0.4,0-0.9,0-1.3c0.1-0.4,0.1-0.8,0.2-1.1
				c0-0.2,0.1-0.3,0.1-0.5c0.1-0.2,0.1-0.3,0.2-0.5c0.1-0.3,0.2-0.6,0.4-0.8c0.1-0.2,0.2-0.4,0.3-0.6c0.2-0.3,0.3-0.5,0.3-0.5
				s-0.1,0.2-0.2,0.5c-0.1,0.2-0.1,0.4-0.2,0.6c-0.1,0.2-0.2,0.5-0.2,0.8c0,0.1-0.1,0.3-0.1,0.5c0,0.2,0,0.3,0,0.5
				c0,0.3,0,0.7,0,1.1c0,0.4,0.1,0.7,0.2,1.1c0.1,0.4,0.2,0.7,0.3,1.1c0.2,0.4,0.3,0.7,0.5,1c0.2,0.3,0.4,0.6,0.6,0.9
				c0.2,0.3,0.4,0.5,0.7,0.8c0.1,0.1,0.2,0.2,0.3,0.3c0.1,0.1,0.2,0.2,0.3,0.3c0.2,0.2,0.4,0.3,0.6,0.4c0.1,0.1,0.2,0.1,0.2,0.2
				c0.1,0.1,0.2,0.1,0.3,0.1c0.3,0.2,0.5,0.3,0.5,0.3c0.6,0.3,0.8,1,0.5,1.6s-1,0.8-1.6,0.5C337.8,722.2,337.7,722.1,337.7,722.1z"
				/>
			<path class="st9" d="M338.9,722.1c0,0-0.2,0.1-0.5,0.2c-0.1,0-0.2,0.1-0.3,0.1c-0.1,0-0.3,0.1-0.4,0.1c-0.3,0.1-0.6,0.2-1,0.2
				c-0.2,0-0.3,0.1-0.5,0.1c-0.2,0-0.4,0-0.6,0.1c-0.4,0.1-0.8,0-1.2,0c-0.4,0-0.9-0.1-1.3-0.2c-0.4-0.1-0.9-0.2-1.3-0.3
				c-0.4-0.2-0.8-0.3-1.2-0.5c-0.4-0.2-0.7-0.4-1.1-0.7c-0.3-0.3-0.6-0.5-0.9-0.8c-0.1-0.1-0.3-0.3-0.4-0.4
				c-0.1-0.1-0.2-0.3-0.3-0.4c-0.2-0.2-0.4-0.5-0.5-0.7c-0.1-0.2-0.3-0.4-0.3-0.6c-0.2-0.3-0.3-0.5-0.3-0.5s0.1,0.2,0.4,0.4
				c0.1,0.1,0.2,0.3,0.4,0.5c0.2,0.2,0.4,0.4,0.6,0.6c0.1,0.1,0.2,0.2,0.4,0.3c0.1,0.1,0.3,0.2,0.4,0.3c0.3,0.2,0.6,0.4,0.9,0.5
				c0.3,0.1,0.7,0.3,1.1,0.4c0.4,0.1,0.7,0.2,1.1,0.3c0.4,0,0.8,0.1,1.1,0.1c0.4,0,0.7,0,1.1,0c0.3-0.1,0.7-0.1,1-0.2
				c0.2,0,0.3-0.1,0.4-0.1c0.1-0.1,0.3-0.1,0.4-0.2c0.3-0.1,0.5-0.2,0.6-0.3c0.1,0,0.2-0.1,0.3-0.1c0.1-0.1,0.2-0.1,0.3-0.2
				c0.3-0.2,0.5-0.3,0.5-0.3c0.6-0.4,1.3-0.2,1.7,0.4c0.4,0.6,0.2,1.3-0.4,1.7C339,722.1,338.9,722.1,338.9,722.1z"/>
			<path class="st9" d="M339.5,721.1c0,0,0,0.2-0.1,0.6c0,0.1,0,0.2,0,0.3c0,0.1-0.1,0.3-0.1,0.4c-0.1,0.3-0.1,0.6-0.3,0.9
				c-0.1,0.2-0.1,0.3-0.2,0.5c-0.1,0.2-0.2,0.3-0.2,0.5c-0.1,0.4-0.4,0.7-0.6,1.1c-0.3,0.3-0.5,0.7-0.8,1c-0.3,0.3-0.6,0.6-0.9,0.9
				c-0.4,0.3-0.7,0.5-1.1,0.8c-0.4,0.2-0.7,0.4-1.1,0.6c-0.4,0.1-0.7,0.3-1.1,0.4c-0.2,0-0.3,0.1-0.5,0.1c-0.2,0-0.3,0.1-0.5,0.1
				c-0.3,0.1-0.6,0.1-0.9,0.1c-0.3,0-0.5,0-0.7,0c-0.4,0-0.6,0-0.6,0s0.2,0,0.6-0.1c0.2,0,0.4-0.1,0.6-0.1c0.2-0.1,0.5-0.1,0.8-0.2
				c0.1-0.1,0.3-0.1,0.4-0.2c0.1-0.1,0.3-0.1,0.5-0.2c0.3-0.1,0.6-0.3,0.9-0.5c0.3-0.2,0.6-0.4,0.9-0.7c0.3-0.2,0.5-0.5,0.8-0.8
				c0.2-0.3,0.5-0.6,0.6-0.9c0.2-0.3,0.3-0.7,0.5-1c0.1-0.3,0.3-0.6,0.3-1c0-0.2,0.1-0.3,0.1-0.4c0-0.1,0-0.3,0.1-0.4
				c0.1-0.3,0.1-0.5,0.1-0.7c0-0.1,0-0.2,0-0.3c0-0.1,0-0.2,0-0.3c0-0.4,0-0.6,0-0.6c0-0.7,0.5-1.2,1.2-1.3c0.7,0,1.2,0.5,1.3,1.2
				C339.5,721,339.5,721.1,339.5,721.1z"/>
			<path class="st9" d="M337.8,720c0,0,0.2-0.1,0.5-0.2c0.1,0,0.2-0.1,0.3-0.1c0.1,0,0.3-0.1,0.4-0.1c0.3-0.1,0.6-0.2,1-0.2
				c0.2,0,0.3-0.1,0.5-0.1c0.2,0,0.4,0,0.6-0.1c0.4-0.1,0.8,0,1.2,0c0.4,0,0.9,0.1,1.3,0.2c0.4,0.1,0.9,0.2,1.3,0.3
				c0.4,0.2,0.8,0.3,1.2,0.5c0.4,0.2,0.7,0.4,1.1,0.7c0.3,0.3,0.6,0.5,0.9,0.8c0.1,0.1,0.3,0.3,0.4,0.4c0.1,0.1,0.2,0.3,0.3,0.4
				c0.2,0.2,0.4,0.5,0.5,0.7c0.1,0.2,0.3,0.4,0.3,0.6c0.2,0.3,0.3,0.5,0.3,0.5s-0.1-0.2-0.4-0.4c-0.1-0.1-0.2-0.3-0.4-0.5
				c-0.2-0.2-0.4-0.4-0.6-0.6c-0.1-0.1-0.2-0.2-0.4-0.3c-0.1-0.1-0.3-0.2-0.4-0.3c-0.3-0.2-0.6-0.4-0.9-0.5
				c-0.3-0.1-0.7-0.3-1.1-0.4c-0.4-0.1-0.7-0.2-1.1-0.3c-0.4,0-0.8-0.1-1.1-0.1c-0.4,0-0.7,0-1.1,0c-0.3,0.1-0.7,0.1-1,0.2
				c-0.2,0-0.3,0.1-0.4,0.1c-0.1,0.1-0.3,0.1-0.4,0.2c-0.3,0.1-0.5,0.2-0.6,0.3c-0.1,0-0.2,0.1-0.3,0.1c-0.1,0.1-0.2,0.1-0.3,0.2
				c-0.3,0.2-0.5,0.3-0.5,0.3c-0.6,0.4-1.3,0.2-1.7-0.4s-0.2-1.3,0.4-1.7C337.7,720.1,337.7,720,337.8,720z"/>
		</g>
		<g id="on">
			<circle class="st15" cx="338.3" cy="721.1" r="15"/>
			<path class="st9" d="M337.1,721c0,0,0-0.2,0.1-0.6c0-0.1,0-0.2,0-0.3c0-0.1,0.1-0.3,0.1-0.4c0.1-0.3,0.1-0.6,0.3-0.9
				c0.1-0.2,0.1-0.3,0.2-0.5c0.1-0.2,0.2-0.3,0.2-0.5c0.1-0.4,0.4-0.7,0.6-1.1c0.3-0.3,0.5-0.7,0.8-1c0.3-0.3,0.6-0.6,0.9-0.9
				c0.4-0.3,0.7-0.5,1.1-0.8c0.4-0.2,0.7-0.4,1.1-0.6c0.4-0.1,0.7-0.3,1.1-0.4c0.2,0,0.3-0.1,0.5-0.1c0.2,0,0.3-0.1,0.5-0.1
				c0.3-0.1,0.6-0.1,0.9-0.1c0.3,0,0.5,0,0.7,0c0.4,0,0.6,0,0.6,0s-0.2,0-0.6,0.1c-0.2,0-0.4,0.1-0.6,0.1c-0.2,0.1-0.5,0.1-0.8,0.2
				c-0.1,0.1-0.3,0.1-0.4,0.2c-0.1,0.1-0.3,0.1-0.5,0.2c-0.3,0.1-0.6,0.3-0.9,0.5c-0.3,0.2-0.6,0.4-0.9,0.7
				c-0.3,0.2-0.5,0.5-0.8,0.8c-0.2,0.3-0.5,0.6-0.6,0.9c-0.2,0.3-0.3,0.7-0.5,1c-0.1,0.3-0.3,0.6-0.3,1c0,0.2-0.1,0.3-0.1,0.4
				c0,0.1,0,0.3-0.1,0.4c-0.1,0.3-0.1,0.5-0.1,0.7c0,0.1,0,0.2,0,0.3c0,0.1,0,0.2,0,0.3c0,0.4,0,0.6,0,0.6c0,0.7-0.5,1.2-1.2,1.3
				c-0.7,0-1.2-0.5-1.3-1.2C337.1,721.2,337.1,721.1,337.1,721z"/>
			<path class="st9" d="M339,720.1c0,0,0.2,0.1,0.4,0.4c0.1,0.1,0.2,0.1,0.2,0.2c0.1,0.1,0.2,0.2,0.3,0.3c0.2,0.2,0.5,0.4,0.7,0.7
				c0.1,0.1,0.2,0.3,0.4,0.4c0.1,0.2,0.2,0.3,0.3,0.5c0.2,0.3,0.4,0.7,0.6,1.1c0.2,0.4,0.4,0.8,0.5,1.2c0.2,0.4,0.2,0.9,0.3,1.3
				c0.1,0.4,0.1,0.9,0.1,1.3c0,0.4,0,0.9,0,1.3c-0.1,0.4-0.1,0.8-0.2,1.1c0,0.2-0.1,0.3-0.1,0.5c-0.1,0.2-0.1,0.3-0.2,0.5
				c-0.1,0.3-0.2,0.6-0.4,0.8c-0.1,0.2-0.2,0.4-0.3,0.6c-0.2,0.3-0.3,0.5-0.3,0.5s0.1-0.2,0.2-0.5c0.1-0.2,0.1-0.4,0.2-0.6
				c0.1-0.2,0.2-0.5,0.2-0.8c0-0.1,0.1-0.3,0.1-0.5c0-0.2,0-0.3,0-0.5c0-0.3,0-0.7,0-1.1c-0.1-0.4-0.1-0.7-0.2-1.1
				c-0.1-0.4-0.2-0.7-0.3-1.1c-0.2-0.4-0.3-0.7-0.5-1c-0.2-0.3-0.4-0.6-0.6-0.9c-0.2-0.3-0.4-0.5-0.7-0.8c-0.1-0.1-0.2-0.2-0.3-0.3
				c-0.1-0.1-0.2-0.2-0.3-0.3c-0.2-0.2-0.4-0.3-0.6-0.4c-0.1-0.1-0.2-0.1-0.2-0.2c-0.1-0.1-0.2-0.1-0.3-0.1
				c-0.3-0.2-0.5-0.3-0.5-0.3c-0.6-0.3-0.8-1-0.5-1.6c0.3-0.6,1-0.8,1.6-0.5C338.9,720,338.9,720,339,720.1z"/>
			<path class="st9" d="M337.7,722.1c0,0-0.2-0.1-0.4-0.4c-0.1-0.1-0.2-0.1-0.2-0.2c-0.1-0.1-0.2-0.2-0.3-0.3
				c-0.2-0.2-0.5-0.4-0.7-0.7c-0.1-0.1-0.2-0.3-0.4-0.4c-0.1-0.2-0.2-0.3-0.3-0.5c-0.2-0.3-0.4-0.7-0.6-1.1
				c-0.2-0.4-0.4-0.8-0.5-1.2c-0.2-0.4-0.2-0.9-0.3-1.3c-0.1-0.4-0.1-0.9-0.1-1.3c0-0.4,0-0.9,0-1.3c0.1-0.4,0.1-0.8,0.2-1.1
				c0-0.2,0.1-0.3,0.1-0.5c0.1-0.2,0.1-0.3,0.2-0.5c0.1-0.3,0.2-0.6,0.4-0.8c0.1-0.2,0.2-0.4,0.3-0.6c0.2-0.3,0.3-0.5,0.3-0.5
				s-0.1,0.2-0.2,0.5c-0.1,0.2-0.1,0.4-0.2,0.6c-0.1,0.2-0.2,0.5-0.2,0.8c0,0.1-0.1,0.3-0.1,0.5c0,0.2,0,0.3,0,0.5
				c0,0.3,0,0.7,0,1.1c0,0.4,0.1,0.7,0.2,1.1c0.1,0.4,0.2,0.7,0.3,1.1c0.2,0.4,0.3,0.7,0.5,1c0.2,0.3,0.4,0.6,0.6,0.9
				c0.2,0.3,0.4,0.5,0.7,0.8c0.1,0.1,0.2,0.2,0.3,0.3c0.1,0.1,0.2,0.2,0.3,0.3c0.2,0.2,0.4,0.3,0.6,0.4c0.1,0.1,0.2,0.1,0.2,0.2
				c0.1,0.1,0.2,0.1,0.3,0.1c0.3,0.2,0.5,0.3,0.5,0.3c0.6,0.3,0.8,1,0.5,1.6s-1,0.8-1.6,0.5C337.8,722.2,337.7,722.1,337.7,722.1z"
				/>
			<path class="st9" d="M338.9,722.1c0,0-0.2,0.1-0.5,0.2c-0.1,0-0.2,0.1-0.3,0.1c-0.1,0-0.3,0.1-0.4,0.1c-0.3,0.1-0.6,0.2-1,0.2
				c-0.2,0-0.3,0.1-0.5,0.1c-0.2,0-0.4,0-0.6,0.1c-0.4,0.1-0.8,0-1.2,0c-0.4,0-0.9-0.1-1.3-0.2c-0.4-0.1-0.9-0.2-1.3-0.3
				c-0.4-0.2-0.8-0.3-1.2-0.5c-0.4-0.2-0.7-0.4-1.1-0.7c-0.3-0.3-0.6-0.5-0.9-0.8c-0.1-0.1-0.3-0.3-0.4-0.4
				c-0.1-0.1-0.2-0.3-0.3-0.4c-0.2-0.2-0.4-0.5-0.5-0.7c-0.1-0.2-0.3-0.4-0.3-0.6c-0.2-0.3-0.3-0.5-0.3-0.5s0.1,0.2,0.4,0.4
				c0.1,0.1,0.2,0.3,0.4,0.5c0.2,0.2,0.4,0.4,0.6,0.6c0.1,0.1,0.2,0.2,0.4,0.3c0.1,0.1,0.3,0.2,0.4,0.3c0.3,0.2,0.6,0.4,0.9,0.5
				c0.3,0.1,0.7,0.3,1.1,0.4c0.4,0.1,0.7,0.2,1.1,0.3c0.4,0,0.8,0.1,1.1,0.1c0.4,0,0.7,0,1.1,0c0.3-0.1,0.7-0.1,1-0.2
				c0.2,0,0.3-0.1,0.4-0.1c0.1-0.1,0.3-0.1,0.4-0.2c0.3-0.1,0.5-0.2,0.6-0.3c0.1,0,0.2-0.1,0.3-0.1c0.1-0.1,0.2-0.1,0.3-0.2
				c0.3-0.2,0.5-0.3,0.5-0.3c0.6-0.4,1.3-0.2,1.7,0.4c0.4,0.6,0.2,1.3-0.4,1.7C339,722.1,338.9,722.1,338.9,722.1z"/>
			<path class="st9" d="M339.5,721.1c0,0,0,0.2-0.1,0.6c0,0.1,0,0.2,0,0.3c0,0.1-0.1,0.3-0.1,0.4c-0.1,0.3-0.1,0.6-0.3,0.9
				c-0.1,0.2-0.1,0.3-0.2,0.5c-0.1,0.2-0.2,0.3-0.2,0.5c-0.1,0.4-0.4,0.7-0.6,1.1c-0.3,0.3-0.5,0.7-0.8,1c-0.3,0.3-0.6,0.6-0.9,0.9
				c-0.4,0.3-0.7,0.5-1.1,0.8c-0.4,0.2-0.7,0.4-1.1,0.6c-0.4,0.1-0.7,0.3-1.1,0.4c-0.2,0-0.3,0.1-0.5,0.1c-0.2,0-0.3,0.1-0.5,0.1
				c-0.3,0.1-0.6,0.1-0.9,0.1c-0.3,0-0.5,0-0.7,0c-0.4,0-0.6,0-0.6,0s0.2,0,0.6-0.1c0.2,0,0.4-0.1,0.6-0.1c0.2-0.1,0.5-0.1,0.8-0.2
				c0.1-0.1,0.3-0.1,0.4-0.2c0.1-0.1,0.3-0.1,0.5-0.2c0.3-0.1,0.6-0.3,0.9-0.5c0.3-0.2,0.6-0.4,0.9-0.7c0.3-0.2,0.5-0.5,0.8-0.8
				c0.2-0.3,0.5-0.6,0.6-0.9c0.2-0.3,0.3-0.7,0.5-1c0.1-0.3,0.3-0.6,0.3-1c0-0.2,0.1-0.3,0.1-0.4c0-0.1,0-0.3,0.1-0.4
				c0.1-0.3,0.1-0.5,0.1-0.7c0-0.1,0-0.2,0-0.3c0-0.1,0-0.2,0-0.3c0-0.4,0-0.6,0-0.6c0-0.7,0.5-1.2,1.2-1.3c0.7,0,1.2,0.5,1.3,1.2
				C339.5,721,339.5,721.1,339.5,721.1z"/>
			<path class="st9" d="M337.8,720c0,0,0.2-0.1,0.5-0.2c0.1,0,0.2-0.1,0.3-0.1c0.1,0,0.3-0.1,0.4-0.1c0.3-0.1,0.6-0.2,1-0.2
				c0.2,0,0.3-0.1,0.5-0.1c0.2,0,0.4,0,0.6-0.1c0.4-0.1,0.8,0,1.2,0c0.4,0,0.9,0.1,1.3,0.2c0.4,0.1,0.9,0.2,1.3,0.3
				c0.4,0.2,0.8,0.3,1.2,0.5c0.4,0.2,0.7,0.4,1.1,0.7c0.3,0.3,0.6,0.5,0.9,0.8c0.1,0.1,0.3,0.3,0.4,0.4c0.1,0.1,0.2,0.3,0.3,0.4
				c0.2,0.2,0.4,0.5,0.5,0.7c0.1,0.2,0.3,0.4,0.3,0.6c0.2,0.3,0.3,0.5,0.3,0.5s-0.1-0.2-0.4-0.4c-0.1-0.1-0.2-0.3-0.4-0.5
				c-0.2-0.2-0.4-0.4-0.6-0.6c-0.1-0.1-0.2-0.2-0.4-0.3c-0.1-0.1-0.3-0.2-0.4-0.3c-0.3-0.2-0.6-0.4-0.9-0.5
				c-0.3-0.1-0.7-0.3-1.1-0.4c-0.4-0.1-0.7-0.2-1.1-0.3c-0.4,0-0.8-0.1-1.1-0.1c-0.4,0-0.7,0-1.1,0c-0.3,0.1-0.7,0.1-1,0.2
				c-0.2,0-0.3,0.1-0.4,0.1c-0.1,0.1-0.3,0.1-0.4,0.2c-0.3,0.1-0.5,0.2-0.6,0.3c-0.1,0-0.2,0.1-0.3,0.1c-0.1,0.1-0.2,0.1-0.3,0.2
				c-0.3,0.2-0.5,0.3-0.5,0.3c-0.6,0.4-1.3,0.2-1.7-0.4s-0.2-1.3,0.4-1.7C337.7,720.1,337.7,720,337.8,720z"/>
		</g>
	</g>
	<g class="st2">
		<g id="off_00000166660378870287440150000017885561310610614157_">
			<path class="st16" d="M837,901.5c20.7,0,37.5,16.8,37.5,37.5c0,20.7-16.8,37.5-37.5,37.5s-37.5-16.8-37.5-37.5
				C799.5,918.3,816.3,901.5,837,901.5z"/>
			<line class="st17" x1="871.4" y1="924.1" x2="820.6" y2="905.3"/>
			<line class="st17" x1="871.4" y1="953.9" x2="820.6" y2="972.7"/>
		</g>
		<g id="on_00000002358002651471329350000006301345453534314909_">
			<path class="st18" d="M837,901.5c20.7,0,37.5,16.8,37.5,37.5c0,20.7-16.8,37.5-37.5,37.5s-37.5-16.8-37.5-37.5
				C799.5,918.3,816.3,901.5,837,901.5z"/>
			<line class="st19" x1="871.4" y1="924.1" x2="820.6" y2="905.3"/>
			<line class="st19" x1="871.4" y1="953.9" x2="820.6" y2="972.7"/>
		</g>
	</g>
	<g class="st2">
		<g id="off_00000100349129331995192720000017190189489243005836_">
			<path class="st20" d="M521,833.2h-42 M485.4,850.6l-19-51.3 M514.6,850.6l19-51.3 M462.5,816c0,20.7,16.8,37.5,37.5,37.5
				c20.7,0,37.5-16.8,37.5-37.5c0-20.7-16.8-37.5-37.5-37.5C479.3,778.5,462.5,795.3,462.5,816z M487.2,810.9l3.9,2.3 M491.2,813.1
				v4.5 M491.2,813.1l-7.5,4.3 M491.2,798.4v4.5 M491.2,803l-3.9,2.3 M491.2,803l-7.5-4.3 M503.9,795.6l-3.9,2.3 M500,797.9
				l-3.9-2.3 M500,797.9v-8.6 M512.7,805.2l-3.9-2.3 M508.8,803v-4.5 M508.8,803l7.5-4.3 M508.8,817.7v-4.5 M508.8,813.1l3.9-2.3
				 M508.8,813.1l7.5,4.3 M496,820.5l3.9-2.3 M500,818.2l8.8-5.1 M491.2,813.1l8.8,5.1 M500,818.2l3.9,2.3 M491.2,803v10.2
				 M500,797.9l-8.8,5.1 M508.8,803l-8.8-5.1 M508.8,813.1l0-10.2 M500,818.2v8.6"/>
		</g>
		<g id="on_00000078736000624919263040000010918586045993811610_">
			<path class="st21" d="M521,833.2h-42 M485.4,850.6l-19-51.3 M514.6,850.6l19-51.3 M462.5,816c0,20.7,16.8,37.5,37.5,37.5
				c20.7,0,37.5-16.8,37.5-37.5c0-20.7-16.8-37.5-37.5-37.5C479.3,778.5,462.5,795.3,462.5,816z M487.2,810.9l3.9,2.3 M491.2,813.1
				v4.5 M491.2,813.1l-7.5,4.3 M491.2,798.4v4.5 M491.2,803l-3.9,2.3 M491.2,803l-7.5-4.3 M503.9,795.6l-3.9,2.3 M500,797.9
				l-3.9-2.3 M500,797.9v-8.6 M512.7,805.2l-3.9-2.3 M508.8,803v-4.5 M508.8,803l7.5-4.3 M508.8,817.7v-4.5 M508.8,813.1l3.9-2.3
				 M508.8,813.1l7.5,4.3 M496,820.5l3.9-2.3 M500,818.2l8.8-5.1 M491.2,813.1l8.8,5.1 M500,818.2l3.9,2.3 M491.2,803v10.2
				 M500,797.9l-8.8,5.1 M508.8,803l-8.8-5.1 M508.8,813.1l0-10.2 M500,818.2v8.6"/>
		</g>
		<g id="off-hot" class="st0">
			<path class="st22" d="M521,833.2h-42 M485.4,850.6l-19-51.3 M514.6,850.6l19-51.3 M462.5,816c0,20.7,16.8,37.5,37.5,37.5
				c20.7,0,37.5-16.8,37.5-37.5c0-20.7-16.8-37.5-37.5-37.5C479.3,778.5,462.5,795.3,462.5,816z M487.2,810.9l3.9,2.3 M491.2,813.1
				v4.5 M491.2,813.1l-7.5,4.3 M491.2,798.4v4.5 M491.2,803l-3.9,2.3 M491.2,803l-7.5-4.3 M503.9,795.6l-3.9,2.3 M500,797.9
				l-3.9-2.3 M500,797.9v-8.6 M512.7,805.2l-3.9-2.3 M508.8,803v-4.5 M508.8,803l7.5-4.3 M508.8,817.7v-4.5 M508.8,813.1l3.9-2.3
				 M508.8,813.1l7.5,4.3 M496,820.5l3.9-2.3 M500,818.2l8.8-5.1 M491.2,813.1l8.8,5.1 M500,818.2l3.9,2.3 M491.2,803v10.2
				 M500,797.9l-8.8,5.1 M508.8,803l-8.8-5.1 M508.8,813.1l0-10.2 M500,818.2v8.6"/>
		</g>
		<g id="on-hot" class="st0">
			<path class="st23" d="M521,833.2h-42 M485.4,850.6l-19-51.3 M514.6,850.6l19-51.3 M462.5,816c0,20.7,16.8,37.5,37.5,37.5
				c20.7,0,37.5-16.8,37.5-37.5c0-20.7-16.8-37.5-37.5-37.5C479.3,778.5,462.5,795.3,462.5,816z M487.2,810.9l3.9,2.3 M491.2,813.1
				v4.5 M491.2,813.1l-7.5,4.3 M491.2,798.4v4.5 M491.2,803l-3.9,2.3 M491.2,803l-7.5-4.3 M503.9,795.6l-3.9,2.3 M500,797.9
				l-3.9-2.3 M500,797.9v-8.6 M512.7,805.2l-3.9-2.3 M508.8,803v-4.5 M508.8,803l7.5-4.3 M508.8,817.7v-4.5 M508.8,813.1l3.9-2.3
				 M508.8,813.1l7.5,4.3 M496,820.5l3.9-2.3 M500,818.2l8.8-5.1 M491.2,813.1l8.8,5.1 M500,818.2l3.9,2.3 M491.2,803v10.2
				 M500,797.9l-8.8,5.1 M508.8,803l-8.8-5.1 M508.8,813.1l0-10.2 M500,818.2v8.6"/>
		</g>
	</g>
	<g class="st2">
		<g id="fault">
			<path class="st24" d="M353.9,352c21-28,67-56,144-56s127,28,148,56H353.9z"/>
		</g>
		<g id="stop">
			<path class="st20" d="M353.9,352c21-28,67-56,144-56s127,28,148,56H353.9z"/>
		</g>
		<g id="spin">
			<path class="st21" d="M353.9,352c21-28,67-56,144-56s127,28,148,56H353.9z"/>
			<line class="st19" x1="544.6" y1="338.7" x2="580.2" y2="338.7"/>
			<line class="st19" x1="526.4" y1="330.3" x2="547.1" y2="330.3"/>
			<line class="st19" x1="544.6" y1="324" x2="567.6" y2="324"/>
		</g>
	</g>
	<g class="st2">
		<g id="_x30_">
			<rect x="421.8" y="627.8" class="st25" width="150" height="40"/>
			<polygon class="st26" points="534.3,627.8 526.8,653.3 466.8,653.3 459.3,627.8 			"/>
			<text transform="matrix(1 0 0 1 489.3239 649.9691)" class="st27 st28 st29">?</text>
		</g>
		<g id="_x31_">
			<rect x="421.8" y="627.8" class="st25" width="150" height="40"/>
			<polygon class="st26" points="534.3,627.8 526.8,653.3 466.8,653.3 459.3,627.8 			"/>
			<text transform="matrix(1 0 0 1 489.3239 649.9691)" class="st27 st28 st29">1</text>
		</g>
		<g id="_x32_">
			<rect x="421.8" y="627.8" class="st25" width="150" height="40"/>
			<polygon class="st26" points="534.3,627.8 526.8,653.3 466.8,653.3 459.3,627.8 			"/>
			<text transform="matrix(1 0 0 1 489.3239 649.9691)" class="st27 st28 st29">2</text>
		</g>
		<g id="_x33_">
			<rect x="421.8" y="627.8" class="st25" width="150" height="40"/>
			<polygon class="st26" points="534.3,627.8 526.8,653.3 466.8,653.3 459.3,627.8 			"/>
			<text transform="matrix(1 0 0 1 489.3239 649.9691)" class="st27 st28 st29">3</text>
		</g>
		<g id="_x34_">
			<rect x="421.8" y="627.8" class="st25" width="150" height="40"/>
			<polygon class="st26" points="534.3,627.8 526.8,653.3 466.8,653.3 459.3,627.8 			"/>
			<text transform="matrix(1 0 0 1 489.3239 649.9691)" class="st27 st28 st29">4</text>
		</g>
	</g>
	<polyline class="st30" points="637,272 637,107 687,107 	"/>
	<g class="st2">
		<g>
			<text transform="matrix(1 0 0 1 483.1901 167.0001)" class="st9 st6 st7">Aux</text>
		</g>
		<g>
			<g id="fault_00000049921962718020641290000003026647006118323604_">
				<polygon class="st24" points="512.5,247 500,222 487.5,247 				"/>
				<polygon class="st24" points="512.5,197 500,222 487.5,197 				"/>
			</g>
			<g id="closed_00000034791710491142910220000018320814460887647140_">
				<polygon class="st31" points="512.5,247 500,222 487.5,247 				"/>
				<polygon class="st31" points="512.5,197 500,222 487.5,197 				"/>
			</g>
			<g id="open_00000133520965920997651320000002540647933579852474_" class="st0">
				<polygon class="st32" points="512.5,247 500,222 487.5,247 				"/>
				<polygon class="st32" points="512.5,197 500,222 487.5,197 				"/>
			</g>
			<g id="opening_00000091693750421693138190000009912254226266227111_" class="st0">
				<polygon class="st33" points="512.5,247 500,222 487.5,247 				"/>
				<polygon class="st33" points="512.5,197 500,222 487.5,197 				"/>
			</g>
			<g id="closing_00000148630480265020019930000018337310010669151653_" class="st0">
				<polygon class="st34" points="512.5,247 500,222 487.5,247 				"/>
				<polygon class="st34" points="512.5,197 500,222 487.5,197 				"/>
			</g>
		</g>
		<line class="st35" x1="500" y1="247" x2="500" y2="272"/>
		<line class="st35" x1="500" y1="172" x2="500" y2="197"/>
	</g>
	<g class="st2">
		<g id="fault_00000156575884218685281870000002995199358601065116_">
			<polygon class="st24" points="512.5,753 500,728 487.5,753 			"/>
			<polygon class="st24" points="512.5,703 500,728 487.5,703 			"/>
		</g>
		<g id="closed_00000153689138350574928360000011792864708531493249_">
			<polygon class="st31" points="512.5,753 500,728 487.5,753 			"/>
			<polygon class="st31" points="512.5,703 500,728 487.5,703 			"/>
		</g>
		<g id="open_00000023244204977653102690000007483899426931744931_" class="st0">
			<polygon class="st32" points="512.5,753 500,728 487.5,753 			"/>
			<polygon class="st32" points="512.5,703 500,728 487.5,703 			"/>
		</g>
		<g id="opening_00000044880447679338828030000012565475520455762824_" class="st0">
			<polygon class="st33" points="512.5,753 500,728 487.5,753 			"/>
			<polygon class="st33" points="512.5,703 500,728 487.5,703 			"/>
		</g>
		<g id="closing_00000095327996705392785900000014267755664446132659_" class="st0">
			<polygon class="st34" points="512.5,753 500,728 487.5,753 			"/>
			<polygon class="st34" points="512.5,703 500,728 487.5,703 			"/>
		</g>
	</g>
	<line class="st36" x1="500" y1="753" x2="500" y2="778"/>
	<line class="st36" x1="500" y1="678" x2="500" y2="703"/>
	<g class="st2">
		<g id="fault_00000141449780086561422210000015984741061879444613_">
			<polygon class="st24" points="674.5,753 662,728 649.5,753 			"/>
			<polygon class="st24" points="674.5,703 662,728 649.5,703 			"/>
		</g>
		<g id="closed_00000129918308967463619500000002463100130488374691_">
			<polygon class="st31" points="674.5,753 662,728 649.5,753 			"/>
			<polygon class="st31" points="674.5,703 662,728 649.5,703 			"/>
		</g>
		<g id="open_00000147941604416536959380000012872196468041529511_" class="st0">
			<polygon class="st32" points="674.5,753 662,728 649.5,753 			"/>
			<polygon class="st32" points="674.5,703 662,728 649.5,703 			"/>
		</g>
		<g id="opening_00000070797672970579640370000013972470200453106578_" class="st0">
			<polygon class="st33" points="674.5,753 662,728 649.5,753 			"/>
			<polygon class="st33" points="674.5,703 662,728 649.5,703 			"/>
		</g>
		<g id="closing_00000102527947317338211000000017917180828432102571_" class="st0">
			<polygon class="st34" points="674.5,753 662,728 649.5,753 			"/>
			<polygon class="st34" points="674.5,703 662,728 649.5,703 			"/>
		</g>
	</g>
	<line class="st36" x1="662" y1="754" x2="662" y2="938"/>
	<line class="st36" x1="662" y1="678" x2="662" y2="703"/>
	<line class="st36" x1="500" y1="855.5" x2="500" y2="940.7"/>
	<line class="st36" x1="574.7" y1="939" x2="795.5" y2="939"/>
	<g class="st2">
		<text transform="matrix(1 0 0 1 746.1599 789.8698)" class="st9 st6 st7">N₂</text>
	</g>
	<g class="st2">
		<g id="fault_00000155120830507992652660000008275123167990685363_">
			<polygon class="st37" points="688,792.5 703,785 688,777.5 			"/>
			<polygon class="st37" points="718,792.5 703,785 718,777.5 			"/>
		</g>
		<g id="closed_00000017514035884283581870000011022812983229667497_">
			<polygon class="st38" points="688,792.5 703,785 688,777.5 			"/>
			<polygon class="st38" points="718,792.5 703,785 718,777.5 			"/>
		</g>
		<g id="open_00000047738521304089961810000012583337456577626544_" class="st0">
			<polygon class="st39" points="688,792.5 703,785 688,777.5 			"/>
			<polygon class="st39" points="718,792.5 703,785 718,777.5 			"/>
		</g>
		<g id="opening_00000078011018518029681970000002380901304150206891_" class="st0">
			<polygon class="st40" points="688,792.5 703,785 688,777.5 			"/>
			<polygon class="st40" points="718,792.5 703,785 718,777.5 			"/>
		</g>
		<g id="closing_00000174561245600092386900000003053948655002752647_" class="st0">
			<polygon class="st41" points="688,792.5 703,785 688,777.5 			"/>
			<polygon class="st41" points="718,792.5 703,785 718,777.5 			"/>
		</g>
	</g>
	<line class="st36" x1="661.9" y1="784" x2="686.9" y2="784"/>
	<line class="st36" x1="718.8" y1="784" x2="744" y2="784"/>
	<line class="st36" x1="662" y1="822" x2="687" y2="822"/>
	<g class="st2">
		<text transform="matrix(1 0 0 1 727.0824 827.8699)" class="st9 st6 st7">312 mTorr</text>
	</g>
	<g class="st2">
		<text transform="matrix(1 0 0 1 549.9998 824.9122)" class="st9 st6 st7">17 K</text>
	</g>
	<g class="st2">
		<text transform="matrix(1 0 0 1 395.7794 883.5521)" class="st9 st6 st7">N₂</text>
	</g>
	<g class="st2">
		<g id="fault_00000108291170844655759950000007200697658429135022_">
			<polygon class="st37" points="444.6,885.2 459.6,877.7 444.6,870.2 			"/>
			<polygon class="st37" points="474.6,885.2 459.6,877.7 474.6,870.2 			"/>
		</g>
		<g id="closed_00000068663910984231579420000012866329066850873774_">
			<polygon class="st38" points="444.6,885.2 459.6,877.7 444.6,870.2 			"/>
			<polygon class="st38" points="474.6,885.2 459.6,877.7 474.6,870.2 			"/>
		</g>
		<g id="open_00000058572216709116692980000009362952008713445786_" class="st0">
			<polygon class="st39" points="444.6,885.2 459.6,877.7 444.6,870.2 			"/>
			<polygon class="st39" points="474.6,885.2 459.6,877.7 474.6,870.2 			"/>
		</g>
		<g id="opening_00000079459272198842361080000000244656546221616260_" class="st0">
			<polygon class="st40" points="444.6,885.2 459.6,877.7 444.6,870.2 			"/>
			<polygon class="st40" points="474.6,885.2 459.6,877.7 474.6,870.2 			"/>
		</g>
		<g id="closing_00000158746273293443547880000017276215383580181166_" class="st0">
			<polygon class="st41" points="444.6,885.2 459.6,877.7 444.6,870.2 			"/>
			<polygon class="st41" points="474.6,885.2 459.6,877.7 474.6,870.2 			"/>
		</g>
	</g>
	<line class="st36" x1="418.6" y1="877.7" x2="443.6" y2="877.7"/>
	<line class="st36" x1="474.4" y1="877.7" x2="499.6" y2="877.7"/>
	<line class="st36" x1="500.6" y1="877.7" x2="525.6" y2="877.7"/>
	<g class="st2">
		<text transform="matrix(1 0 0 1 560.7019 885.5522)" class="st9 st6 st7">312 mTorr</text>
	</g>
	<g class="st2">
		<g id="fault_00000180350899440677774110000016237667888979297434_">
			<polygon class="st24" points="523.4,951.2 548.4,938.7 523.4,926.2 			"/>
			<polygon class="st24" points="573.4,951.2 548.4,938.7 573.4,926.2 			"/>
		</g>
		<g id="closed_00000001659763574210761420000014452690396006374308_">
			<polygon class="st31" points="523.4,951.2 548.4,938.7 523.4,926.2 			"/>
			<polygon class="st31" points="573.4,951.2 548.4,938.7 573.4,926.2 			"/>
		</g>
		<g id="open_00000155128723289781431560000007962436484274163843_" class="st0">
			<polygon class="st32" points="523.4,995.2 548.4,982.7 523.4,970.2 			"/>
			<polygon class="st32" points="573.4,995.2 548.4,982.7 573.4,970.2 			"/>
		</g>
		<g id="opening_00000039122902648659490700000017677741757798477188_" class="st0">
			<polygon class="st33" points="523.4,995.2 548.4,982.7 523.4,970.2 			"/>
			<polygon class="st33" points="573.4,995.2 548.4,982.7 573.4,970.2 			"/>
		</g>
		<g id="closing_00000012463797122625345330000005414826216363915446_" class="st0">
			<polygon class="st34" points="523.4,995.2 548.4,982.7 523.4,970.2 			"/>
			<polygon class="st34" points="573.4,995.2 548.4,982.7 573.4,970.2 			"/>
		</g>
	</g>
	<line class="st36" x1="498.4" y1="938.7" x2="523.4" y2="938.7"/>
	<line class="st42" x1="700.2" y1="593.5" x2="735.2" y2="593.5"/>
	<g class="st2">
		<text transform="matrix(1 0 0 1 775.2482 599.3372)" class="st9 st6 st7">312 mTorr</text>
	</g>
	<line class="st42" x1="700.2" y1="547.1" x2="735.2" y2="547.1"/>
	<g class="st2">
		<text transform="matrix(1 0 0 1 775.2482 552.9952)" class="st9 st6 st7">5.1e-6</text>
	</g>
	<g id="normal_00000084507201965983410580000001898112865327533500_" class="st2">
		<circle class="st15" cx="750.2" cy="547.1" r="15"/>
		<line class="st43" x1="743.5" y1="542.1" x2="750.1" y2="556.3"/>
		<line class="st43" x1="756.7" y1="542.1" x2="750.1" y2="556.3"/>
		<line class="st43" x1="743.5" y1="548.4" x2="757" y2="548.4"/>
	</g>
	<line class="st36" x1="338.3" y1="681" x2="338.3" y2="706"/>
	<g class="st2">
		<g id="fault_00000053547285177489108150000013356856732288756651_">
			<rect x="687" y="84" class="st24" width="126" height="46"/>
		</g>
		<g id="off_00000070085285242072672100000013885607836461811382_">
			<rect x="687" y="84" class="st20" width="126" height="46"/>
		</g>
		<g id="on_00000027584755245211758980000017355223949516982441_">
			<rect x="687" y="84" class="st21" width="126" height="46"/>
		</g>
	</g>
	<g class="st2">
		<text transform="matrix(1 0 0 1 869.8903 112.8701)" class="st9 st6 st7">O₂</text>
	</g>
	<g class="st2">
		<text transform="matrix(1 0 0 1 869.8902 167.8702)" class="st9 st6 st7">N₂</text>
	</g>
	<g class="st2">
		<text transform="matrix(1 0 0 1 869.8898 222.8702)" class="st9 st6 st7">Ar</text>
	</g>
	<g class="st2">
		<g id="fault_00000070798732336827750700000003652145637266161572_">
			<rect x="687" y="139" class="st24" width="126" height="46"/>
		</g>
		<g id="off_00000164473823258856687940000013945404374604020885_">
			<rect x="687" y="139" class="st20" width="126" height="46"/>
		</g>
		<g id="on_00000100373164555258728050000018180564456838001336_">
			<rect x="687" y="139" class="st21" width="126" height="46"/>
		</g>
	</g>
	<g class="st2">
		<g id="fault_00000032618249403622751020000016907531372616911804_">
			<rect x="687" y="194" class="st24" width="126" height="46"/>
		</g>
		<g id="off_00000067236221210512561310000014387024262341595053_">
			<rect x="687" y="194" class="st20" width="126" height="46"/>
		</g>
		<g id="on_00000073718688021994974540000002566248900166408856_">
			<rect x="687" y="194" class="st21" width="126" height="46"/>
		</g>
	</g>
	<line class="st36" x1="813" y1="107" x2="863" y2="107"/>
	<line class="st36" x1="813" y1="162" x2="863" y2="162"/>
	<line class="st36" x1="813" y1="217" x2="863" y2="217"/>
	<line class="st36" x1="637" y1="217" x2="687" y2="217"/>
	<line class="st36" x1="637" y1="162" x2="687" y2="162"/>
	<g class="st2">
		<text transform="matrix(1 0 0 1 709.4903 112.8703)" class="st9 st6 st7">12.3 sccm</text>
	</g>
	<g class="st2">
		<text transform="matrix(1 0 0 1 709.4902 167.8701)" class="st9 st6 st7">12.3 sccm</text>
	</g>
	<g class="st2">
		<text transform="matrix(1 0 0 1 709.491 222.8702)" class="st9 st6 st7">12.3 sccm</text>
	</g>
	<g class="st2">
		<text transform="matrix(1 0 0 1 191.4029 958.947)" class="st9 st6 st7">Acessory</text>
	</g>
	<g class="st2">
		<g id="fault_00000053534852397908396650000017829531658652173719_">
			<polygon class="st37" points="647,114.5 662,107 647,99.5 			"/>
			<polygon class="st37" points="677,114.5 662,107 677,99.5 			"/>
		</g>
		<g id="closed_00000051370262901944150920000011479540802979579316_">
			<polygon class="st38" points="647,114.5 662,107 647,99.5 			"/>
			<polygon class="st38" points="677,114.5 662,107 677,99.5 			"/>
		</g>
		<g id="open_00000130624372458131603190000002804219715448004740_" class="st0">
			<polygon class="st39" points="647,114.5 662,107 647,99.5 			"/>
			<polygon class="st39" points="677,114.5 662,107 677,99.5 			"/>
		</g>
		<g id="opening_00000087404740674460992280000005208938773833776261_" class="st0">
			<polygon class="st40" points="647,114.5 662,107 647,99.5 			"/>
			<polygon class="st40" points="677,114.5 662,107 677,99.5 			"/>
		</g>
		<g id="closing_00000183928606965329261280000004050574062998989952_" class="st0">
			<polygon class="st41" points="647,114.5 662,107 647,99.5 			"/>
			<polygon class="st41" points="677,114.5 662,107 677,99.5 			"/>
		</g>
	</g>
	<g class="st2">
		<g id="fault_00000179622885129686703640000003039270863004141718_">
			<polygon class="st37" points="647,169.5 662,162 647,154.5 			"/>
			<polygon class="st37" points="677,169.5 662,162 677,154.5 			"/>
		</g>
		<g id="closed_00000154412323552008478040000007151567164559332506_">
			<polygon class="st38" points="647,169.5 662,162 647,154.5 			"/>
			<polygon class="st38" points="677,169.5 662,162 677,154.5 			"/>
		</g>
		<g id="open_00000051377932447144832520000014419302864142131133_" class="st0">
			<polygon class="st39" points="647,169.5 662,162 647,154.5 			"/>
			<polygon class="st39" points="677,169.5 662,162 677,154.5 			"/>
		</g>
		<g id="opening_00000074406613699937890460000004125985151874990515_" class="st0">
			<polygon class="st40" points="647,169.5 662,162 647,154.5 			"/>
			<polygon class="st40" points="677,169.5 662,162 677,154.5 			"/>
		</g>
		<g id="closing_00000048479444819304097560000008528671207950964918_" class="st0">
			<polygon class="st41" points="647,169.5 662,162 647,154.5 			"/>
			<polygon class="st41" points="677,169.5 662,162 677,154.5 			"/>
		</g>
	</g>
	<g class="st2">
		<g id="fault_00000006675315410582640650000013427569153877637795_">
			<polygon class="st37" points="647,224.5 662,217 647,209.5 			"/>
			<polygon class="st37" points="677,224.5 662,217 677,209.5 			"/>
		</g>
		<g id="closed_00000106863778023926395510000011337515418390738583_">
			<polygon class="st38" points="647,224.5 662,217 647,209.5 			"/>
			<polygon class="st38" points="677,224.5 662,217 677,209.5 			"/>
		</g>
		<g id="open_00000046329420380070578430000001398371631037823395_" class="st0">
			<polygon class="st39" points="647,224.5 662,217 647,209.5 			"/>
			<polygon class="st39" points="677,224.5 662,217 677,209.5 			"/>
		</g>
		<g id="opening_00000068658296633216042810000018346145702197520051_" class="st0">
			<polygon class="st40" points="647,224.5 662,217 647,209.5 			"/>
			<polygon class="st40" points="677,224.5 662,217 677,209.5 			"/>
		</g>
		<g id="closing_00000180324385054806857500000005492404033247345336_" class="st0">
			<polygon class="st41" points="647,224.5 662,217 647,209.5 			"/>
			<polygon class="st41" points="677,224.5 662,217 677,209.5 			"/>
		</g>
	</g>
	<g class="st2">
		<text transform="matrix(1 0 0 1 74.9492 957.0599)" class="st9 st6 st7">312 mTorr</text>
	</g>
	<g id="normal_00000127034122346849896800000017913575138987298231_" class="st2">
		<circle class="st15" cx="49.9" cy="951.2" r="15"/>
		<line class="st43" x1="43.2" y1="946.2" x2="49.8" y2="960.4"/>
		<line class="st43" x1="56.4" y1="946.2" x2="49.8" y2="960.4"/>
		<line class="st43" x1="43.2" y1="952.5" x2="56.7" y2="952.5"/>
	</g>
	<g class="st2">
		<text transform="matrix(1 0 0 1 733.6797 296.2197)" class="st9 st6 st7">Door</text>
	</g>
	<g id="open_00000065782576187881394850000002856981252921198764_" class="st2">
		<polyline class="st19" points="722.7,302.4 712.7,322.4 712.7,342.4 		"/>
		<line class="st19" x1="712.7" y1="282.4" x2="712.7" y2="302.4"/>
	</g>
	<g class="st2">
		<text transform="matrix(1 0 0 1 776.2194 644.0427)" class="st9 st6 st7">At Atmo</text>
	</g>
	<g class="st2">
		<rect x="138" y="552.8" class="st21" width="106.9" height="71.4"/>
		<g>
			<text transform="matrix(1 0 0 1 163.0032 594.3396)" class="st9 st6 st7">XTC/2v</text>
		</g>
	</g>
	<line class="st42" x1="702.5" y1="637.6" x2="737.5" y2="637.6"/>
	<g class="st2">
		<text transform="matrix(1 0 0 1 733.6799 386.4273)" class="st9 st6 st7">Tank</text>
	</g>
	<g id="open_00000174591914084303059190000005682409768175163540_" class="st2">
		<polyline class="st19" points="722.7,392.6 712.7,412.6 712.7,432.6 		"/>
		<line class="st19" x1="712.7" y1="372.6" x2="712.7" y2="392.6"/>
	</g>
	<g class="st2">
		<g>
			<text transform="matrix(1 0 0 1 334.2101 166.4999)" class="st9 st6 st7">Vent</text>
		</g>
		<g>
			<g id="fault_00000150805405816921814220000010034967969687963016_">
				<polygon class="st24" points="368.5,246.5 356,221.5 343.5,246.5 				"/>
				<polygon class="st24" points="368.5,196.5 356,221.5 343.5,196.5 				"/>
			</g>
			<g id="closed_00000158024990887901180540000002744039558810188722_">
				<polygon class="st31" points="368.5,246.5 356,221.5 343.5,246.5 				"/>
				<polygon class="st31" points="368.5,196.5 356,221.5 343.5,196.5 				"/>
			</g>
			<g id="open_00000128462783056178310530000014153831099401500058_" class="st0">
				<polygon class="st32" points="368.5,246.5 356,221.5 343.5,246.5 				"/>
				<polygon class="st32" points="368.5,196.5 356,221.5 343.5,196.5 				"/>
			</g>
			<g id="opening_00000148626191648324179830000004452515015581313156_" class="st0">
				<polygon class="st33" points="368.5,246.5 356,221.5 343.5,246.5 				"/>
				<polygon class="st33" points="368.5,196.5 356,221.5 343.5,196.5 				"/>
			</g>
			<g id="closing_00000013187869194253522640000009244938130709389500_" class="st0">
				<polygon class="st34" points="368.5,246.5 356,221.5 343.5,246.5 				"/>
				<polygon class="st34" points="368.5,196.5 356,221.5 343.5,196.5 				"/>
			</g>
		</g>
		<line class="st35" x1="356" y1="246.5" x2="356" y2="271.5"/>
		<line class="st35" x1="356" y1="171.5" x2="356" y2="196.5"/>
	</g>
	<g id="open_00000132052614897677420520000016318823943303384208_" class="st2">
		<polyline class="st19" points="220.3,928.2 240.3,938.2 260.3,938.2 		"/>
		<line class="st19" x1="200.3" y1="938.2" x2="220.3" y2="938.2"/>
	</g>
	<g class="st2">
		<g>
			<path class="st44" d="M321.8,328.3c3.6,0,4-8.7,6.6-8.7c2.6,0,3.7,9.2,7,9.2s3.1-8.3,6.4-8.3"/>
			<path class="st44" d="M321.8,341c3.6,0,4-8.7,6.6-8.7c2.6,0,3.7,9.2,7,9.2s3.1-8.3,6.4-8.3"/>
			<path class="st44" d="M321.8,353.7c3.6,0,4-8.7,6.6-8.7c2.6,0,3.7,9.2,7,9.2s3.1-8.3,6.4-8.3"/>
			<path class="st44" d="M321.8,366.4c3.6,0,4-8.7,6.6-8.7c2.6,0,3.7,9.2,7,9.2s3.1-8.3,6.4-8.3"/>
			<path class="st44" d="M321.8,379.1c3.6,0,4-8.7,6.6-8.7c2.6,0,3.7,9.2,7,9.2s3.1-8.3,6.4-8.3"/>
		</g>
		<line class="st44" x1="320.5" y1="315.8" x2="320.5" y2="383.4"/>
	</g>
	<g class="st2">
		<g>
			<path class="st44" d="M1257.4,873c3.6,0,4-8.7,6.6-8.7c2.6,0,3.7,9.2,7,9.2s3.1-8.3,6.4-8.3"/>
			<path class="st44" d="M1257.4,885.7c3.6,0,4-8.7,6.6-8.7c2.6,0,3.7,9.2,7,9.2s3.1-8.3,6.4-8.3"/>
			<path class="st44" d="M1257.4,898.4c3.6,0,4-8.7,6.6-8.7c2.6,0,3.7,9.2,7,9.2s3.1-8.3,6.4-8.3"/>
			<path class="st44" d="M1257.4,911.1c3.6,0,4-8.7,6.6-8.7c2.6,0,3.7,9.2,7,9.2s3.1-8.3,6.4-8.3"/>
			<path class="st44" d="M1257.4,923.8c3.6,0,4-8.7,6.6-8.7c2.6,0,3.7,9.2,7,9.2s3.1-8.3,6.4-8.3"/>
		</g>
		<line class="st44" x1="1256.1" y1="860.5" x2="1256.1" y2="928.1"/>
	</g>
	<g class="st2">
		<text transform="matrix(1 0 0 1 320.6823 303.1343)" class="st9 st6 st7">50.1 °C</text>
	</g>
	<path class="st45" d="M445.5,548c0,0,9.3-18.5,57.3-19.1c48-0.6,62.6,19.1,62.6,19.1"/>
	<circle class="st45" cx="1412.8" cy="818.8" r="64.2"/>
	<path class="st46" d="M363.7,638.9c6-27.3,31.8-47.8,62.9-47.8c26.6,0,49.4,15.1,59.1,36.5"/>
	<rect x="311" y="630.1" class="st47" width="106.9" height="35.7"/>
	<g class="st2">
		<text transform="matrix(1 0 0 1 338.9362 655.3098)" class="st9 st6 st7">Simba</text>
	</g>
	<g class="st2">
		<g id="fault_00000163046561578978291920000008871055098244718522_">
			<circle class="st37" cx="540.6" cy="877.7" r="15"/>
			<line class="st48" x1="547.2" y1="889.9" x2="540.6" y2="875.7"/>
			<line class="st48" x1="534.1" y1="889.9" x2="540.6" y2="875.7"/>
			<circle class="st3" cx="540.6" cy="875.4" r="3.6"/>
		</g>
		<g id="off_00000075149790238297582340000002629240930348931006_">
			<circle class="st49" cx="540.6" cy="877.7" r="15"/>
			<line class="st48" x1="547.2" y1="889.9" x2="540.6" y2="875.7"/>
			<line class="st48" x1="534.1" y1="889.9" x2="540.6" y2="875.7"/>
			<circle class="st3" cx="540.6" cy="875.4" r="3.6"/>
		</g>
		<g id="on_00000101799081656788652510000007240615472118335654_">
			<circle class="st15" cx="540.6" cy="877.7" r="15"/>
			<line class="st43" x1="547.2" y1="889.9" x2="540.6" y2="875.7"/>
			<line class="st43" x1="534.1" y1="889.9" x2="540.6" y2="875.7"/>
			<circle class="st9" cx="540.6" cy="875.4" r="3.6"/>
		</g>
	</g>
	<g class="st2">
		<g id="fault_00000064322823371352114430000014380427443057407880_">
			<circle class="st37" cx="698.9" cy="822.6" r="15"/>
			<line class="st48" x1="705.5" y1="834.7" x2="698.9" y2="820.6"/>
			<line class="st48" x1="692.4" y1="834.7" x2="698.9" y2="820.6"/>
			<circle class="st3" cx="698.9" cy="820.3" r="3.6"/>
		</g>
		<g id="off_00000170249954565178250880000008623060029213787574_">
			<circle class="st49" cx="698.9" cy="822.6" r="15"/>
			<line class="st48" x1="705.5" y1="834.7" x2="698.9" y2="820.6"/>
			<line class="st48" x1="692.4" y1="834.7" x2="698.9" y2="820.6"/>
			<circle class="st3" cx="698.9" cy="820.3" r="3.6"/>
		</g>
		<g id="on_00000044140212173385126520000008534151454224729220_">
			<circle class="st15" cx="698.9" cy="822.6" r="15"/>
			<line class="st43" x1="705.5" y1="834.7" x2="698.9" y2="820.6"/>
			<line class="st43" x1="692.4" y1="834.7" x2="698.9" y2="820.6"/>
			<circle class="st9" cx="698.9" cy="820.3" r="3.6"/>
		</g>
	</g>
	<g class="st2">
		<g id="fault_00000054968991766480965270000004909949445184904337_">
			<circle class="st37" cx="750.1" cy="594.3" r="15"/>
			<line class="st48" x1="756.6" y1="606.5" x2="750.1" y2="592.4"/>
			<line class="st48" x1="743.6" y1="606.5" x2="750.1" y2="592.4"/>
			<circle class="st3" cx="750.1" cy="592.1" r="3.6"/>
		</g>
		<g id="off_00000160891725561455955420000009541063486983845520_">
			<circle class="st49" cx="750.1" cy="594.3" r="15"/>
			<line class="st48" x1="756.6" y1="606.5" x2="750.1" y2="592.4"/>
			<line class="st48" x1="743.6" y1="606.5" x2="750.1" y2="592.4"/>
			<circle class="st3" cx="750.1" cy="592.1" r="3.6"/>
		</g>
		<g id="on_00000016766262181904095530000001198320554108530348_">
			<circle class="st15" cx="750.1" cy="594.3" r="15"/>
			<line class="st43" x1="756.6" y1="606.5" x2="750.1" y2="592.4"/>
			<line class="st43" x1="743.6" y1="606.5" x2="750.1" y2="592.4"/>
			<circle class="st9" cx="750.1" cy="592.1" r="3.6"/>
		</g>
	</g>
	<g class="st2">
		<g id="fault_00000053523574884554476630000016016509427798078859_">
			<circle class="st37" cx="753.4" cy="637.6" r="15"/>
			<line class="st37" x1="742" y1="637.6" x2="749.2" y2="637.6"/>
			<polyline class="st37" points="749.8,629.8 760,637.6 764.8,637.6 			"/>
		</g>
		<g id="off_00000154385408308347357710000014531181696027646392_">
			<circle class="st49" cx="753.4" cy="637.6" r="15"/>
			<line class="st49" x1="742" y1="637.6" x2="749.2" y2="637.6"/>
			<polyline class="st49" points="749.8,629.8 760,637.6 764.8,637.6 			"/>
		</g>
		<g id="on_00000114060407740278228980000014329593942313394351_">
			<circle class="st15" cx="753.4" cy="637.6" r="15"/>
			<line class="st15" x1="742" y1="637.6" x2="764.2" y2="637.6"/>
		</g>
	</g>
</g>
<g id="System_x5F_Icons">
	<g>
		<path class="st3" d="M318,275h364c9.9,0,18,8.1,18,18v364c0,9.9-8.1,18-18,18H318c-9.9,0-18-8.1-18-18V293
			C300,283.1,308.1,275,318,275z"/>
		<path class="st4" d="M318,275h364c9.9,0,18,8.1,18,18v364c0,9.9-8.1,18-18,18H318c-9.9,0-18-8.1-18-18V293
			C300,283.1,308.1,275,318,275z"/>
	</g>
	<polyline class="st50" points="637,272 637,107 687,107 	"/>
	<g>
		<text transform="matrix(1 0 0 1 483.1901 167.0001)" class="st9 st6 st7">Aux</text>
	</g>
	<line class="st35" x1="500" y1="247" x2="500" y2="272"/>
	<line class="st35" x1="500" y1="172" x2="500" y2="197"/>
	<line class="st35" x1="500" y1="753" x2="500" y2="778"/>
	<line class="st35" x1="500" y1="678" x2="500" y2="703"/>
	<line class="st35" x1="662" y1="754" x2="662" y2="938"/>
	<line class="st35" x1="662" y1="678" x2="662" y2="703"/>
	<line class="st35" x1="500" y1="855.5" x2="500" y2="940.7"/>
	<line class="st35" x1="574.7" y1="939" x2="795.5" y2="939"/>
	<g>
		<text transform="matrix(1 0 0 1 746.1599 789.8698)" class="st9 st6 st7">N₂</text>
	</g>
	<line class="st35" x1="661.9" y1="784" x2="686.9" y2="784"/>
	<line class="st35" x1="718.8" y1="784" x2="744" y2="784"/>
	<line class="st35" x1="662" y1="822" x2="687" y2="822"/>
	<g>
		<text transform="matrix(1 0 0 1 395.7794 883.5521)" class="st9 st6 st7">N₂</text>
	</g>
	<line class="st35" x1="418.6" y1="877.7" x2="443.6" y2="877.7"/>
	<line class="st35" x1="474.4" y1="877.7" x2="499.6" y2="877.7"/>
	<line class="st35" x1="500.6" y1="877.7" x2="525.6" y2="877.7"/>
	<line class="st35" x1="498.4" y1="938.7" x2="523.4" y2="938.7"/>
	<line class="st51" x1="703" y1="593.5" x2="735.2" y2="593.5"/>
	<line class="st51" x1="703" y1="547.1" x2="735.2" y2="547.1"/>
	<line class="st52" x1="338.3" y1="678" x2="338.3" y2="706"/>
	<g>
		<text transform="matrix(1 0 0 1 869.8903 112.8701)" class="st9 st6 st7">O₂</text>
	</g>
	<g>
		<text transform="matrix(1 0 0 1 869.8902 167.8702)" class="st9 st6 st7">N₂</text>
	</g>
	<g>
		<text transform="matrix(1 0 0 1 869.8898 222.8702)" class="st9 st6 st7">Ar</text>
	</g>
	<line class="st35" x1="813" y1="107" x2="863" y2="107"/>
	<line class="st35" x1="813" y1="162" x2="863" y2="162"/>
	<line class="st35" x1="813" y1="217" x2="863" y2="217"/>
	<line class="st35" x1="637" y1="217" x2="687" y2="217"/>
	<line class="st35" x1="637" y1="162" x2="687" y2="162"/>
	<line class="st51" x1="703" y1="637.6" x2="737.5" y2="637.6"/>
	<g>
		<text transform="matrix(1 0 0 1 334.2101 166.4999)" class="st9 st6 st7">Vent</text>
	</g>
	<line class="st35" x1="356" y1="246.5" x2="356" y2="272"/>
	<line class="st35" x1="356" y1="171.5" x2="356" y2="196.5"/>
</g>
</svg>
