<?xml version="1.0" encoding="utf-8"?>
<!-- Generator: Adobe Illustrator 27.6.1, SVG Export Plug-In . SVG Version: 6.00 Build 0)  -->
<svg version="1.1" id="Layer_2_00000168819544221241386970000008280097171989003711_"
	 xmlns="http://www.w3.org/2000/svg" xmlns:xlink="http://www.w3.org/1999/xlink" x="0px" y="0px" viewBox="0 0 1000 1000"
	 style="enable-background:new 0 0 1000 1000;" xml:space="preserve">
<style type="text/css">
	.st0{fill:#38558E;stroke:#000000;stroke-miterlimit:10;}
	.st1{fill:#111133;}
	.st2{fill:none;stroke:#2C4276;stroke-width:6;stroke-linecap:round;stroke-linejoin:round;}
	.st3{fill:#FCF9E5;}
	.st4{font-family:'MyriadPro-Bold';}
	.st5{font-size:20px;}
	.st6{fill:none;stroke:#FCF9E5;stroke-width:4;stroke-linejoin:round;}
	.st7{font-size:11.6px;}
	.st8{fill:none;stroke:#FCF9E5;stroke-width:4;stroke-miterlimit:10;}
</style>
<rect class="st0" width="1000" height="1000"/>
<g>
	<path class="st1" d="M318,230h364c9.9,0,18,8.1,18,18v364c0,9.9-8.1,18-18,18H318c-9.9,0-18-8.1-18-18V248
		C300,238.1,308.1,230,318,230z"/>
	<path class="st2" d="M318,230h364c9.9,0,18,8.1,18,18v364c0,9.9-8.1,18-18,18H318c-9.9,0-18-8.1-18-18V248
		C300,238.1,308.1,230,318,230z"/>
</g>
<text transform="matrix(1 0 0 1 168.17 181.67)" class="st3 st4 st5">A</text>
<text transform="matrix(1 0 0 1 180.17 181.67)" class="st3 st4 st5">ux</text>
<text transform="matrix(1 0 0 1 162.29 130.92)" class="st3 st4 st5">V</text>
<text transform="matrix(1 0 0 1 172.79 130.92)" class="st3 st4 st5">e</text>
<text transform="matrix(1 0 0 1 182.81 130.92)" class="st3 st4 st5">n</text>
<text transform="matrix(1 0 0 1 193.83 130.92)" class="st3 st4 st5">t</text>
<g>
	<line class="st6" x1="435" y1="898" x2="435" y2="723"/>
	<line class="st6" x1="565" y1="763" x2="565" y2="723"/>
	<line class="st6" x1="435" y1="878" x2="475" y2="878"/>
	<polyline class="st6" points="525,878 565,878 565,878 565,838 	"/>
	<line class="st6" x1="565" y1="878" x2="605" y2="878"/>
	<line class="st6" x1="395" y1="800.5" x2="435" y2="800.5"/>
	<polyline class="st6" points="565,878 565,935.5 605,935.5 	"/>
	<text transform="matrix(1 0 0 1 704.95 941.76)" class="st3 st4 st5">N</text>
	<text transform="matrix(1 0 0 1 718.1104 948.4199)" class="st3 st4 st7">2</text>
	<text transform="matrix(1 0 0 1 279.61 883.63)" class="st3 st4 st5">N</text>
	<text transform="matrix(1 0 0 1 292.77 890.29)" class="st3 st4 st7">2</text>
	<line class="st6" x1="395" y1="878" x2="435" y2="878"/>
	<line class="st6" x1="435" y1="673" x2="435" y2="633"/>
	<line class="st6" x1="565" y1="673" x2="565" y2="633"/>
	<line class="st8" x1="655" y1="935.5" x2="695" y2="935.5"/>
	<line class="st8" x1="345" y1="877.6" x2="305" y2="877.6"/>
</g>
<g>
	<line class="st6" x1="743" y1="600" x2="703" y2="600"/>
	<line class="st6" x1="743" y1="525" x2="703" y2="525"/>
</g>
<line class="st6" x1="257" y1="600" x2="297" y2="600"/>
<line class="st6" x1="257" y1="525" x2="297" y2="525"/>
<polyline class="st6" points="340,227 340,175 300,175 "/>
<line class="st6" x1="250" y1="175" x2="210" y2="175"/>
<line class="st6" x1="850" y1="175" x2="1000" y2="175"/>
<line class="st6" x1="250" y1="125" x2="210" y2="125"/>
<polyline class="st6" points="300,125 400,125 400,227 "/>
<polyline class="st6" points="660,227 660,175 700,175 "/>
<line class="st6" x1="750" y1="175" x2="790" y2="175"/>
<line class="st6" x1="750" y1="125" x2="790" y2="125"/>
<polyline class="st6" points="700,125 600,125 600,227 "/>
<line class="st6" x1="850" y1="125" x2="1000" y2="125"/>
</svg>
