<?xml version="1.0" encoding="utf-8"?>
<!-- Generator: Adobe Illustrator 16.0.4, SVG Export Plug-In . SVG Version: 6.00 Build 0)  -->
<!DOCTYPE svg PUBLIC "-//W3C//DTD SVG 1.1//EN" "http://www.w3.org/Graphics/SVG/1.1/DTD/svg11.dtd">
<svg version="1.1" id="Layer_1" xmlns="http://www.w3.org/2000/svg" xmlns:xlink="http://www.w3.org/1999/xlink" x="0px" y="0px"
	 width="54px" height="29px" viewBox="0 0 54 29" enable-background="new 0 0 54 29" xml:space="preserve">
 
<g id="fault">
    <polygon fill="#EE2958" stroke="#FCF9E5" stroke-width="4" stroke-linecap="round" stroke-linejoin="round" stroke-miterlimit="10" points="
	2,27 27,14.5 2,2 "/>
    <polygon fill="#EE2958" stroke="#FCF9E5" stroke-width="4" stroke-linecap="round" stroke-linejoin="round" stroke-miterlimit="10" points="
	52,27 27,14.5 52,2 "/>
</g> 
<g id="closed">
    <polygon fill="#2C4276" stroke="#FCF9E5" stroke-width="4" stroke-linecap="round" stroke-linejoin="round" stroke-miterlimit="10" points="
	2,27 27,14.5 2,2 "/>
    <polygon fill="#2C4276" stroke="#FCF9E5" stroke-width="4" stroke-linecap="round" stroke-linejoin="round" stroke-miterlimit="10" points="
	52,27 27,14.5 52,2 "/>
</g> 
<g id="open">
    <polygon fill="#FCF9E5" stroke="#FCF9E5" stroke-width="4" stroke-linecap="round" stroke-linejoin="round" stroke-miterlimit="10" points="
	2,27 27,14.5 2,2 "/>
    <polygon fill="#FCF9E5" stroke="#FCF9E5" stroke-width="4" stroke-linecap="round" stroke-linejoin="round" stroke-miterlimit="10" points="
	52,27 27,14.5 52,2 "/>
</g>
<g id="closing">
    <polygon fill="#2C4276" stroke="#111133" stroke-width="4" stroke-linecap="round" stroke-linejoin="round" stroke-miterlimit="10" points="
	2,27 27,14.5 2,2 "/>
    <polygon fill="#2C4276" stroke="#111133" stroke-width="4" stroke-linecap="round" stroke-linejoin="round" stroke-miterlimit="10" points="
	52,27 27,14.5 52,2 "/>
</g> 
<g id="opening">
    <polygon fill="#FCF9E5" stroke="#111133" stroke-width="4" stroke-linecap="round" stroke-linejoin="round" stroke-miterlimit="10" points="
	2,27 27,14.5 2,2 "/>
    <polygon fill="#FCF9E5" stroke="#111133" stroke-width="4" stroke-linecap="round" stroke-linejoin="round" stroke-miterlimit="10" points="
	52,27 27,14.5 52,2 "/>
</g>

</svg>
